<svg xmlns="http://www.w3.org/2000/svg" viewBox="0 0 73.15 309.75"><g id="レイヤー_2" data-name="レイヤー 2"><g id="レイヤー_1-2" data-name="レイヤー 1"><path d="M33.2,21.75c-1.25.05-1.9-1.05-1.9-2.25s.65-2.25,1.9-2.2l2.7.1h.4c5.05,0,8.2-2.65,8.2-7,0-4-3-6.35-7.8-6.35-4.45,0-6.75,1.85-8,5.05a2,2,0,0,1-1.9,1.25,4.26,4.26,0,0,1-1.15-.2A2,2,0,0,1,24.1,8.3a2,2,0,0,1,.2-.9C25.8,3.65,29.15,0,36.9,0c7.35,0,12.3,4,12.3,10.05,0,4.95-2.45,8.15-7.4,9.35,5.8.8,8.6,4.25,8.6,10,0,6.6-5.2,11.15-13.9,11.15C29,40.55,24.75,37.35,23,32.8a2,2,0,0,1-.2-.9,2.15,2.15,0,0,1,1.8-2,3.73,3.73,0,0,1,1-.15A2.15,2.15,0,0,1,27.6,31.2c1.3,3.25,3.85,5.2,9,5.2s9-2.8,9-7.4-3.4-7.3-9.35-7.3H36Z" fill="#fff"/><path d="M48.53,125.85A1.86,1.86,0,0,1,50.38,128c0,1.19-.65,2.25-1.85,2.25H25.78a2.7,2.7,0,0,1-3-3,14.25,14.25,0,0,1,1.9-5.7c1.8-3.45,4.8-6.55,9.5-9.6l3.45-2.25c4.9-3.2,7-5.15,7-9s-3.1-6-7.8-6c-5.85,0-7.7,3.35-8.6,6.85A2.1,2.1,0,0,1,26,103.1a3.78,3.78,0,0,1-.75,0,2.14,2.14,0,0,1-1.9-2,3.86,3.86,0,0,1,.1-.75,12.86,12.86,0,0,1,3.3-6.1c2.25-2.2,5.4-3.6,10.3-3.6,7.6,0,12.45,4,12.45,10.3,0,6.1-3.85,8.85-8.4,11.7l-3.3,2c-5.55,3.5-8.75,6.8-9.95,11.3Z" fill="#fff"/><path d="M42.2,217.1a2.12,2.12,0,0,1-2.4,2.15c-1.4,0-2.35-.7-2.35-2.1v-31c0-1.1-.25-1.5-1.3-1.5H36l-4.7.15h-.1a2.2,2.2,0,0,1-2.2-2.25,2.27,2.27,0,0,1,2.2-2.4l6.4-.15H38c3.3,0,4.2,1.1,4.2,4.75Z" fill="#fff"/><path d="M28,294.7c0-.85-.25-1.4-1.3-1.4H20.1a1.87,1.87,0,0,1-2-2.1,2,2,0,0,1,2-2.2h8c3,0,4.1,1.3,4.1,4.35v14.1a1.91,1.91,0,0,1-2.1,2.15c-1.35,0-2.15-.7-2.15-1.85v-1.3a15.83,15.83,0,0,1,.15-2.05,8,8,0,0,1-1.45,1.9,13.71,13.71,0,0,1-9.15,3.4C6.55,309.7,0,301.55,0,289.45c0-11.7,6.5-20.2,17.4-20.2,8.35,0,12.3,4.6,14.05,8.35a2.15,2.15,0,0,1,.25,1,2.21,2.21,0,0,1-1.55,2,3.71,3.71,0,0,1-1.25.25,2.09,2.09,0,0,1-2-1.35c-1.35-3-3.85-5.95-9.4-5.95C9.8,273.6,5,279.8,5,289.5c0,10.1,5.15,15.85,12.65,15.85,5.55,0,10.3-3.7,10.3-9.55Z" fill="#fff"/><path d="M73.15,289.5c0,12.3-6.7,20.25-17.4,20.25s-17.5-7.9-17.5-20.3c0-12.25,6.75-20.2,17.5-20.2S73.15,277.15,73.15,289.5Zm-29.95,0c0,9.65,4.9,15.9,12.55,15.9s12.45-6.15,12.45-16.2c0-9.45-4.85-15.65-12.45-15.65S43.2,279.85,43.2,289.5Z" fill="#fff"/></g></g></svg>